<svg t="1759909534197" class="icon" viewBox="0 0 1024 1024" version="1.1" xmlns="http://www.w3.org/2000/svg" p-id="4643" width="81" height="81"><path d="M1024 1024 0 1024 0 0l1024 0L1024 1024zM44.520727 979.479273l934.958545 0L979.479273 44.520727 44.520727 44.520727 44.520727 979.479273z" fill="#414042" p-id="4644"></path><path d="M22.272 322.792727l979.479273 0 0 44.520727-979.479273 0 0-44.520727Z" fill="#414042" p-id="4645"></path><path d="M280.110545 118.272l111.290182 0 0 111.313455-111.290182 0 0-111.313455Z" fill="#414042" p-id="4646"></path><path d="M631.668364 118.272l111.290182 0 0 111.313455-111.290182 0 0-111.313455Z" fill="#414042" p-id="4647"></path><path d="M266.193455 461.544727l126.557091 0 0 403.642182-56.738909 0L336.011636 507.368727l-69.818182 0L266.193455 461.544727z" fill="#414042" p-id="4648"></path><path d="M534.551273 743.005091l56.738909 0c0 49.454545 22.551273 75.636364 67.630545 78.545455 50.920727 0 76.357818-32.721455 76.357818-98.187636-1.466182-58.158545-24.738909-87.994182-69.818182-89.460364-32 1.466182-53.108364 15.266909-63.278545 41.448727l-58.903273-13.102545 23.994182-200.727273 205.102545 0 0 50.176-154.903273 0-15.266909 102.539636 2.187636 0c13.102545-20.363636 36.352-31.278545 69.818182-32.721455 74.193455 4.375273 113.454545 52.363636 117.829818 144.011636-2.932364 93.090909-48.011636 140.357818-135.284364 141.824C573.812364 867.374545 533.085091 825.902545 534.551273 743.005091z" fill="#414042" p-id="4649"></path></svg>