<svg t="1759910815377" class="icon" viewBox="0 0 1109 1024" version="1.1" xmlns="http://www.w3.org/2000/svg" p-id="52296" width="81" height="81"><path d="M256 640V341.333333a256 256 0 0 1 256-256h85.333333a256 256 0 0 1 256 256v399.36a170.666667 170.666667 0 0 1-170.666666 170.666667h-77.952a42.666667 42.666667 0 0 0 0 85.333333H682.666667a256 256 0 0 0 256-256V341.333333a341.333333 341.333333 0 0 0-341.333334-341.333333h-85.333333a341.333333 341.333333 0 0 0-341.333333 341.333333v298.666667a42.666667 42.666667 0 0 0 85.333333 0z" fill="#666666" p-id="52297"></path><path d="M960 384a149.333333 149.333333 0 0 1 0 298.666667H896a42.666667 42.666667 0 0 1-42.666667-42.666667v-213.333333a42.666667 42.666667 0 0 1 42.666667-42.666667h64z m-21.333333 213.333333h21.333333a64 64 0 0 0 0-128H938.666667v128zM149.333333 384a149.333333 149.333333 0 0 0 0 298.666667H213.333333a42.666667 42.666667 0 0 0 42.666667-42.666667v-213.333333a42.666667 42.666667 0 0 0-42.666667-42.666667H149.333333z m21.333334 213.333333h-21.333334a64 64 0 0 1 0-128H170.666667v128z" fill="#666666" p-id="52298"></path><path d="M485.845333 826.026667h213.333334v170.666666h-213.333334z" fill="#666666" p-id="52299"></path><path d="M419.626667 612.181333a212.650667 212.650667 0 0 0 141.738666 53.888 212.650667 212.650667 0 0 0 140.501334-52.778666 42.666667 42.666667 0 1 0-56.192-64.213334 127.317333 127.317333 0 0 1-84.309334 31.658667 127.317333 127.317333 0 0 1-84.992-32.341333 42.666667 42.666667 0 0 0-56.746666 63.786666z" fill="#666666" p-id="52300"></path></svg>