<svg t="1759909658952" class="icon" viewBox="0 0 1024 1024" version="1.1" xmlns="http://www.w3.org/2000/svg" p-id="7741" width="81" height="81"><path d="M553.453037 165.508741l0.303407-32.237037 22.034963 0.227555h0.37926a37.925926 37.925926 0 0 0 0.303407-75.851852l-119.921778-1.061926h-0.341333a37.925926 37.925926 0 0 0-0.341333 75.851852l22.034963 0.18963-0.303408 32.464593c-204.041481 17.332148-365.605926 187.733333-367.42637 396.515555-2.275556 221.866667 176.734815 403.911111 398.222222 405.807408h3.792593c220.34963 0 400.080593-177.948444 401.635555-398.601482 2.23763-212.461037-159.668148-383.051852-360.372148-403.304296z m135.471407 576.625778c-7.205926 6.826667-16.687407 10.998519-26.927407 10.998518-9.860741 0-19.721481-4.171852-26.548148-10.998518l-150.186667-150.186667c-7.205926-7.205926-11.377778-17.066667-11.377778-26.927408v-212.005925a37.925926 37.925926 0 0 1 11.377778-26.927408c7.205926-7.205926 17.445926-10.24 26.927408-10.998518 141.084444 0.758519 251.486815 114.725926 249.931851 252.586666a250.538667 250.538667 0 0 1-73.197037 174.45926z" p-id="7742"></path></svg>