<svg t="1759909862761" class="icon" viewBox="0 0 1144 1024" version="1.1" xmlns="http://www.w3.org/2000/svg" p-id="13966" width="81" height="81"><path d="M998.211172 446.346265a531.206862 531.206862 0 0 0-17.887578-80.102622C897.390277 95.340189 616.850418-59.14344 353.415178 21.380775 89.979938 101.90499-56.252518 386.961915 26.560343 657.805142c82.812861 270.903454 363.412949 425.387082 626.908416 344.862867 27.704666-8.130717 41.376317-39.810401 30.113768-56.011608-11.202322-16.140979-30.113768-16.140979-50.470675-10.539818-227.238491 69.502576-469.654321-63.961643-541.264861-298.246756-71.670767-234.285113 54.686602-480.495277 281.925094-549.937625 227.238491-69.502576 469.594093 63.961643 541.26486 298.246755 6.022754 19.694404 13.972788 60.950266 13.972788 59.62526 0-1.204551-121.418711-1.927281-126.477824 0.782958-5.119341 2.770467-13.671651 34.69106-0.72273 47.579753l132.801715 132.861943a32.281959 32.281959 0 0 0 6.865939 10.057998 33.72742 33.72742 0 0 0 47.579753-0.662502L1134.084491 491.456689c13.310285-13.310285 4.818203-47.579753 0.662503-47.579753-4.095472 0-136.475595 2.710239-136.475595 2.469329z" fill="#666666" p-id="13967"></path></svg>