<svg t="1759910066616" class="icon" viewBox="0 0 1024 1024" version="1.1" xmlns="http://www.w3.org/2000/svg" p-id="21809" width="81" height="81"><path d="M458 319.2h56.8v207.5h130.9v56.8H458z" fill="#333333" p-id="21810"></path><path d="M960.4 209.7l-53.8 182.5-183-62.5 16.7-58.5 91.1 22.9c-69.1-100.6-199.7-171.7-321.7-171.3-204.7 0-388.6 183.5-388.6 388.5s184 389.2 388.6 389.2 388-184.3 388-389.2h57.4c0 246.3-199.4 446-445.4 446-118.1 0-231.4-47-315-130.6-174-174.3-174-456.7 0-630.9 146.9-147 375.7-172.9 551.7-62.4 53.8 33.9 99.8 78.9 134.9 132l23.6-73.6 55.5 17.9z" fill="#333333" p-id="21811"></path></svg>