<svg t="1759910104545" class="icon" viewBox="0 0 1024 1024" version="1.1" xmlns="http://www.w3.org/2000/svg" p-id="22793" width="81" height="81"><path d="M511.706311 127.981836c-211.94718 0-383.76336 171.817204-383.76336 383.763361S299.760155 895.508557 511.706311 895.508557s383.76336-171.817204 383.763361-383.76336-171.817204-383.76336-383.763361-383.763361z m182.610015 521.107425c12.388145 12.388145 12.388145 32.473599 0 44.862768l-0.364297 0.364297c-12.388145 12.388145-32.473599 12.388145-44.862768 0L511.763616 556.99068 374.437971 694.316326c-12.388145 12.388145-32.473599 12.388145-44.862767 0l-0.364297-0.364297c-12.388145-12.388145-12.388145-32.473599 0-44.862768l137.325645-137.325645-137.325645-137.325645c-12.388145-12.388145-12.388145-32.473599 0-44.862767l0.364297-0.364297c12.388145-12.388145 32.473599-12.388145 44.862767 0l137.325645 137.325645L649.089261 329.210907c12.388145-12.388145 32.473599-12.388145 44.862768 0l0.364297 0.364297c12.388145 12.388145 12.388145 32.473599 0 44.862767L556.99068 511.763616l137.325646 137.325645z" p-id="22794"></path></svg>