<svg t="1759910214354" class="icon" viewBox="0 0 1024 1024" version="1.1" xmlns="http://www.w3.org/2000/svg" p-id="27781" width="81" height="81"><path d="M509.568 509.568m-509.568 0a509.568 509.568 0 1 0 1019.136 0 509.568 509.568 0 1 0-1019.136 0Z" fill="#F56A00" p-id="27782"></path><path d="M503.8848 646.5536c26.9312 0 48.7424 21.8368 48.7424 48.7424v3.6352a48.768 48.768 0 1 1-97.536 0v-3.6352c0-26.9056 21.8624-48.7424 48.7936-48.7424z m0-386.4832c20.9408 0 37.9136 16.9728 37.9136 37.9136v227.584a37.9136 37.9136 0 1 1-75.8528 0v-227.584c0-20.9408 16.9728-37.9136 37.9392-37.9136z" fill="#FFFFFF" p-id="27783"></path></svg>