<svg t="1759910516496" class="icon" viewBox="0 0 1024 1024" version="1.1" xmlns="http://www.w3.org/2000/svg" p-id="42097" width="81" height="81"><path d="M472.528747 39.420058v39.317668a39.420058 39.420058 0 1 0 78.840116 0V39.420058a39.420058 39.420058 0 1 0-78.840116 0zM336.964704 249.933407A315.053295 315.053295 0 0 1 511.948805 196.89551 315.360464 315.360464 0 0 1 827.0021 511.948805 315.053295 315.053295 0 1 1 336.862314 249.984602z m-140.017999-13.669033a39.420058 39.420058 0 0 1-27.850015-11.570043l-39.420058-39.368864a39.420058 39.420058 0 1 1 55.80242-55.70003l39.317668 39.368864a39.420058 39.420058 0 0 1-27.850015 67.270073zM129.676632 838.520948l39.368863-39.420058A39.420058 39.420058 0 0 1 224.745525 854.954505l-39.368863 39.317668a39.420058 39.420058 0 0 1-55.70003-55.70003zM842.053395 233.29507a39.368863 39.368863 0 0 1-42.90131-64.249575l39.368863-39.420058a39.420058 39.420058 0 0 1 55.70003 55.80242l-39.368863 39.317668a39.420058 39.420058 0 0 1-12.79872 8.549545z m-15.051295 554.286972c10.443756 0 20.477952 4.146785 27.850015 11.570043l39.420058 39.368863a39.368863 39.368863 0 1 1-55.80242 55.70003l-39.317668-39.368863a39.420058 39.420058 0 0 1 27.850015-67.270073zM39.368863 472.579942h39.420058a39.420058 39.420058 0 1 1 0 78.737726h-39.420058a39.420058 39.420058 0 1 1 0-78.737726z m444.729927 444.729927a39.420058 39.420058 0 0 1 67.218878 27.850015v39.368863a39.420058 39.420058 0 1 1-78.737726 0v-39.420058c0-10.392561 4.09559-20.477952 11.518848-27.79882z m461.061094-444.729927h39.368863a39.420058 39.420058 0 0 1 0 78.737726h-39.420058a39.420058 39.420058 0 1 1 0-78.737726z m-345.463054 207.236876a184.147985 184.147985 0 0 0 65.017499-92.969903l0.051194 0.153585a14.078592 14.078592 0 0 0-17.559844-17.559844 154.710929 154.710929 0 0 1-192.851114-192.90231 14.027397 14.027397 0 0 0-17.559844-17.559844 184.147985 184.147985 0 0 0-92.969903 65.017498 182.663334 182.663334 0 0 0 255.872012 255.820818z" p-id="42098"></path></svg>