<svg t="1759910487583" class="icon" viewBox="0 0 1024 1024" version="1.1" xmlns="http://www.w3.org/2000/svg" p-id="41101" width="81" height="81"><path d="M972.8 471.04h-50.176c-28.3648 0-51.2 18.3296-51.2 40.96 0 22.528 22.8352 40.96 51.2 40.96h50.176c28.2624 0 51.2-18.3296 51.2-40.96 0-22.528-23.04-40.96-51.2-40.96zM512 230.4A280.6784 280.6784 0 0 0 230.4 512 280.6784 280.6784 0 0 0 512 793.6 280.7808 280.7808 0 0 0 793.6 512 280.7808 280.7808 0 0 0 512 230.4zM153.6 512c0-22.528-22.9376-40.96-51.2-40.96H51.2c-28.2624 0-51.2 18.3296-51.2 40.96 0 22.528 22.9376 40.96 51.2 40.96H102.4c28.2624 0 51.2-18.432 51.2-40.96zM512 153.6c22.528 0 40.96-22.9376 40.96-51.2V51.2C552.96 22.9376 534.528 0 512 0c-22.528 0-40.96 22.9376-40.96 51.2V102.4c0 28.2624 18.3296 51.2 40.96 51.2z m0 716.8c-22.6304 0-40.96 22.8352-40.96 51.2v51.2c0 28.3648 18.3296 51.2 40.96 51.2 22.528 0 40.96-22.8352 40.96-51.2V921.6c0-28.3648-18.432-51.2-40.96-51.2z m377.0368-677.5808c20.0704-20.0704 23.2448-49.152 7.3728-65.2288-15.9744-15.872-45.2608-12.5952-65.1264 7.3728l-35.84 35.84c-20.0704 19.968-23.3472 49.152-7.2704 65.1264 15.872 15.9744 45.1584 12.6976 65.1264-7.2704l35.84-35.84zM170.7008 795.2384l-35.84 35.9424c-20.0704 19.968-23.2448 49.152-7.2704 65.024 15.9744 15.9744 45.2608 12.8 65.1264-7.168l35.84-35.84c20.0704-19.968 23.2448-49.152 7.2704-65.2288-15.9744-15.9744-45.2608-12.5952-65.1264 7.2704z m22.1184-660.3776c-20.0704-19.968-49.2544-23.2448-65.2288-7.2704-15.9744 15.9744-12.6976 45.2608 7.168 65.2288l35.84 35.84c20.0704 19.968 49.152 23.2448 65.2288 7.2704 15.872-15.9744 12.6976-45.1584-7.2704-65.1264l-35.84-35.84z m602.5216 718.4384l35.84 35.84c19.968 19.968 49.152 23.1424 65.1264 7.2704 15.9744-15.9744 12.6976-45.1584-7.2704-65.1264l-35.84-35.84c-19.968-20.0704-49.152-23.3472-65.2288-7.2704-15.9744 15.872-12.5952 45.056 7.3728 65.1264z" fill="#474C51" p-id="41102"></path></svg>