<svg t="1759910460850" class="icon" viewBox="0 0 1024 1024" version="1.1" xmlns="http://www.w3.org/2000/svg" p-id="40067" width="81" height="81"><path d="M1024 512c0 282.752-229.248 512-512 512S0 794.752 0 512 229.248 0 512 0s512 229.248 512 512" fill="#767676" p-id="40068"></path><path d="M523.776 853.333333c-97.408 0-180.565333-34.474667-249.6-103.552-68.992-69.034667-103.466667-152.32-103.466667-249.685333 0-70.101333 19.797333-134.997333 59.306667-194.986667 39.594667-59.861333 91.349333-103.978667 155.264-132.48 4.010667-3.072 8.106667-2.56 12.16 1.493334 5.034667 3.072 6.613333 7.594667 4.565333 13.738666-16.213333 38.656-24.32 77.653333-24.32 117.290667 0 90.368 32.213333 167.722667 96.682667 232.234667 64.426667 64.426667 141.781333 96.682667 232.106667 96.682666 49.706667 0 92.842667-7.552 129.365333-22.784 4.010667-3.157333 8.064-2.602667 12.074667 1.408 5.077333 3.072 6.613333 7.594667 4.565333 13.738667-26.325333 69.034667-69.205333 124.117333-128.597333 165.205333-59.306667 41.130667-126.037333 61.696-200.106667 61.696z" fill="#FAFAFA" p-id="40069"></path><path d="M759.338667 397.696A243.072 243.072 0 0 0 729.685333 298.666667a248.917333 248.917333 0 0 0-30.421333 97.706666 248.661333 248.661333 0 0 0-101.930667 30.421334c31.402667 17.408 66.176 27.733333 101.930667 30.421333 3.328 34.261333 13.653333 67.456 30.421333 97.450667 16.768-30.122667 26.88-63.573333 29.653334-97.962667a246.869333 246.869333 0 0 0 93.994666-29.866667 242.389333 242.389333 0 0 0-93.994666-29.952v0.853334z" fill="#FAFAFA" p-id="40070"></path></svg>