<svg t="1759910593287" class="icon" viewBox="0 0 1024 1024" version="1.1" xmlns="http://www.w3.org/2000/svg" p-id="45098" width="81" height="81"><path d="M587.896471 139.866353a210.823529 210.823529 0 1 1 0 421.647059H586.089412a361.472 361.472 0 0 0-361.411765 361.411764h-60.235294c0-189.741176 125.289412-350.147765 297.682823-403.094588a210.823529 210.823529 0 0 1 125.891765-379.904zM430.983529 680.056471l60.536471 190.343529h2.108235l61.982118-190.343529h51.079529L521.637647 922.925176H460.378353L377.072941 680.056471h53.910588z m257.92753 0v242.868705h-49.332706V680.056471h49.392941z m135.830588 0c24.033882 0 42.827294 2.770824 56.500706 8.252235a53.127529 53.127529 0 0 1 29.214118 25.901176c5.842824 11.745882 8.734118 27.587765 8.734117 47.405177 0 20.781176-3.192471 37.285647-9.637647 49.513412a56.380235 56.380235 0 0 1-30.117647 26.624c-13.613176 5.421176-31.864471 8.192-54.693647 8.192h-30.840471v76.980705h-49.332705V680.056471h80.112941z m-6.324706 39.574588h-24.515765v86.738823h24.515765c12.830118 0 22.889412-1.204706 30.117647-3.794823a26.503529 26.503529 0 0 0 15.540706-13.312c3.132235-6.324706 4.758588-15.179294 4.758588-26.624 0-16.082824-3.734588-27.286588-11.203764-33.551059-7.469176-6.324706-20.540235-9.456941-39.213177-9.456941zM587.896471 200.101647a150.588235 150.588235 0 1 0 0 301.176471 150.588235 150.588235 0 0 0 0-301.176471z" fill="#000000" p-id="45099"></path></svg>